<?xml version="1.0" encoding="UTF-8" standalone="no"?>
<!DOCTYPE svg PUBLIC "-//W3C//DTD SVG 1.0//EN" "http://www.w3.org/TR/2001/REC-SVG-20010904/DTD/svg10.dtd">
<!-- Создано Microsoft Visio 11.0, Экспорт SVG, версия 1.0 Татсоцбанк Logo.svg Page-1 -->
<svg xmlns="http://www.w3.org/2000/svg" xmlns:v="http://schemas.microsoft.com/visio/2003/SVGExtensions/" width="1.5748in"
		height="2.3622in" viewBox="0 0 113.386 170.078" xml:space="preserve" color-interpolation-filters="sRGB" class="st2">
	<v:documentProperties v:langID="1049" v:metric="true"/>

	<style type="text/css">
	<![CDATA[
		.st1 {fill:#ea5b10;stroke:#fb5800;stroke-linecap:round;stroke-linejoin:round;stroke-width:0.239999}
		.st2 {fill:none;fill-rule:evenodd;font-size:12;overflow:visible;stroke-linecap:square;stroke-miterlimit:3}
	]]>
	</style>

	<g v:mID="0" v:index="1" v:groupContext="foregroundPage">
		<title>Page-1</title>
		<v:pageProperties v:drawingScale="0.0393701" v:pageScale="0.0393701" v:drawingUnits="24" v:shadowOffsetX="8.50391"
				v:shadowOffsetY="-8.50391"/>
		<g id="group1-1" transform="translate(28.4421,-24.2521)" v:mID="1" v:groupContext="group">
			<title>Лист.1</title>
			<g id="shape2-2" v:mID="2" v:groupContext="shape" transform="translate(15.9275,-78.654)">
				<title>Лист.2</title>
				<path d="M12.35 169.55 C8.53 164.77 6.42 162.08 4.83 159.4 C3.27 156.77 2.2 154.14 0.11 149.16 A1.41732 1.41732 0
							 0 1 0.16 147.95 C2.74 143.08 3.44 142.1 4.92 140.08 C6.37 138.11 8.55 135.16 12.44 131.15 A1.41732 1.41732
							 0 0 1 14.47 131.15 C18.36 135.16 20.55 138.11 21.99 140.08 C23.47 142.1 24.17 143.08 26.75 147.95 A1.41732
							 1.41732 0 0 1 26.8 149.16 C24.71 154.14 23.64 156.77 22.08 159.4 C20.49 162.08 18.39 164.77 14.56 169.55
							 A1.41732 1.41732 0 0 1 12.35 169.55 Z" class="st1"/>
			</g>
			<g id="shape3-4" v:mID="3" v:groupContext="shape" transform="translate(6.80316,-38.7009)">
				<title>Лист.3</title>
				<path d="M23.68 136.97 C27.5 132.19 29.58 129.54 31.16 126.89 C32.56 124.53 33.58 122.16 35.6 118 A1.41732 1.41732
							 0 0 1 38.1 117.91 C40.02 121.18 41.03 123.44 41.93 125.49 C42.91 127.7 43.76 129.67 45.08 133.32 A1.41732
							 1.41732 0 0 1 45.06 134.31 C42.25 141.55 38.51 149.54 35.05 155.36 C31.72 160.95 28.64 164.54 23.58
							 169.66 A1.41732 1.41732 0 0 1 21.57 169.66 C16.51 164.54 13.43 160.95 10.1 155.36 C6.64 149.54 2.91
							 141.55 0.09 134.31 A1.41732 1.41732 0 0 1 0.08 133.32 C1.39 129.67 2.25 127.7 3.22 125.49 C4.13 123.44
							 5.14 121.18 7.05 117.91 A1.41732 1.41732 0 0 1 9.55 118 C11.58 122.16 12.59 124.53 14 126.89 C15.58
							 129.54 17.65 132.19 21.47 136.97 A1.41732 1.41732 -180 0 0 23.68 136.97 Z" class="st1"/>
			</g>
			<g id="shape4-6" v:mID="4" v:groupContext="shape">
				<title>Лист.4</title>
				<path d="M30.39 138.33 C35.43 133.25 38.35 130.03 40.85 126.38 C43.73 122.17 46.04 117.39 50.91 107.63 A1.41732 1.41732
							 0 0 1 53.4 107.54 C54.36 109.19 55.26 110.84 55.88 112.1 C56.89 114.17 57.14 115.16 58.67 119 A1.41732
							 1.41732 0 0 1 58.69 119.99 C54.81 131.09 52.03 139.77 47.18 148.45 C42.82 156.28 36.77 164.1 30.31 169.73
							 A1.41732 1.41732 0 0 1 28.45 169.73 C21.99 164.1 15.95 156.28 11.58 148.45 C6.73 139.77 3.95 131.09
							 0.07 119.99 A1.41732 1.41732 0 0 1 0.1 119 C1.62 115.16 1.87 114.17 2.88 112.1 C3.5 110.84 4.4 109.19
							 5.36 107.54 A1.41732 1.41732 0 0 1 7.85 107.63 C12.72 117.39 15.03 122.17 17.91 126.38 C20.41 130.03
							 23.33 133.25 28.37 138.33 A1.41732 1.41732 -180 0 0 30.39 138.33 Z" class="st1"/>
			</g>
		</g>
	</g>
</svg>
